<?xml version="1.0" encoding="UTF-8"?>
<svg width="512pt" height="512pt" version="1.1" viewBox="0 0 512 512" xmlns="http://www.w3.org/2000/svg">
 <g>
  <path d="m256 8c-136.75 0-248 111.25-248 248s111.25 248 248 248 248-111.25 248-248-111.25-248-248-248zm-70.945 395.16c-28.523 0-51.73-23.285-51.73-51.895 0-28.617 23.203-51.895 51.73-51.895 28.523 0 51.727 23.285 51.727 51.895 0.007812 28.613-23.203 51.895-51.727 51.895zm159.5-59.25h-43.262v-125.01c0-11.961 9.7031-21.691 21.633-21.691s21.633 9.7305 21.633 21.691zm116.31-19.191h-73.422c-3.6797 4.5938-7.6719 8.6328-11.961 11.965-4.9844 3.8828-10.555 6.2344-16.293 6.9609v-124.74c0-20.07-16.27-36.398-36.266-36.398s-36.266 16.328-36.266 36.398v125h-35.641c-3.6602-33.281-31.844-59.254-65.961-59.254-32.945 0-60.746 24.758-65.57 56.707-0.046875-0.011719-0.097656-0.023438-0.14844-0.035157-7.2773-1.8125-16.488-4.2891-23.199-7.4062-15.598-7.2461-44.629-20.746-50.996-44.102-7.6367-28.02 17.855-63.559 75.785-105.65 37.973-27.57 167.87-113.12 245.34-56.172 29.184 21.457 46.965 61.598 47.562 107.38 0.36719 27.898-5.8516 54.379-16.77 74.637h63.805c4.0391 0 7.3164 3.293 7.3164 7.3555 0.003907 4.0703-3.2734 7.3594-7.3125 7.3594z"/>
  <path d="m230.44 187.05h-90.766c-4.0391 0-7.3164 3.293-7.3164 7.3516v43.305c0 4.0586 3.2773 7.3555 7.3164 7.3555h90.766c4.0391 0 7.3164-3.293 7.3164-7.3555v-43.305c0-4.0586-3.2773-7.3516-7.3164-7.3516zm-7.3164 43.305h-76.133v-28.598h76.129v28.598z"/>
  <path d="m331.61 228.61c0 4.8086-3.8906 8.7109-8.6836 8.7109-4.7969 0-8.6875-3.9023-8.6875-8.7109 0-4.8125 3.8906-8.7148 8.6875-8.7148 4.793 0 8.6836 3.9023 8.6836 8.7148"/>
 </g>
</svg>
