<?xml version="1.0" encoding="UTF-8"?>
<svg width="512pt" height="512pt" version="1.1" viewBox="0 0 512 512" xmlns="http://www.w3.org/2000/svg">
 <path d="m366.78 44.605c-47.012 0-88.047 25.059-110.78 62.527-22.73-37.469-63.766-62.527-110.78-62.527-71.68 0-129.71 58.027-129.71 129.71 0 153.29 240.48 293.16 240.48 293.16s240.48-139.87 240.48-293.16c0-71.68-58.027-129.71-129.71-129.71zm-95.418 114.43c5.3516-24.668 23.43-41.656 40.34-37.934 16.91 3.6445 26.297 26.688 20.945 51.277-5.3516 24.668-23.43 41.656-40.34 37.934-16.91-3.6484-26.297-26.609-20.945-51.277zm-71.137-37.934c16.91-3.6445 34.988 13.344 40.34 37.934s-4.0352 47.633-20.945 51.277c-16.91 3.6445-34.988-13.344-40.34-37.934-5.3516-24.672 4.0352-47.633 20.945-51.277zm-78.738 122.02c-9.2305-19.859-5.5859-41.113 8.0664-47.477 13.652-6.2852 32.195 4.6562 41.426 24.59 9.2305 19.859 5.5859 41.113-8.0664 47.477-13.656 6.3633-32.273-4.7305-41.426-24.59zm220.55 119.39c-3.957 13.109-20.246 17.609-30.719 8.8438-8.0664-6.6719-17.844-12.258-30.098-16.059-16.523-5.1211-34.445-5.043-50.969 0.15625-12.023 3.8008-21.566 9.3086-29.48 15.902-10.551 8.7656-26.84 4.2656-30.797-8.8438-10.395-34.211-2.0156-72.844 24.98-99.918 34.133-34.133 87.973-34.133 122.11 0 27.07 27.074 35.371 65.707 24.977 99.918zm48.484-119.39c-9.2305 19.859-27.695 30.875-41.426 24.59-13.73-6.2852-17.301-27.539-8.0664-47.477 9.2305-19.859 27.695-30.875 41.426-24.59 13.652 6.3633 17.297 27.539 8.0664 47.477z"/>
</svg>
