<?xml version="1.0" standalone="no"?>
<!DOCTYPE svg PUBLIC "-//W3C//DTD SVG 1.0//EN" "http://www.w3.org/TR/2001/REC-SVG-20010904/DTD/svg10.dtd">
<svg xmlns="http://www.w3.org/2000/svg" xmlns:xlink="http://www.w3.org/1999/xlink" id="body_1" width="615" height="615">

<g transform="matrix(1.2011719 0 0 1.2011719 0 0)">
    <path d="M256 6C 212.117 6 169.004 17.550999 131 39.492C 92.996 61.433 61.434 92.992004 39.491997 131C 17.550997 169.004 5.999996 212.117 5.999996 256C 5.999996 322.305 32.339996 385.89 79.22299 432.78C 126.10999 479.663 189.693 506.003 256.003 506.003C 322.30798 505.99908 385.893 479.663 432.773 432.776C 479.66 385.893 505.996 322.306 506 256.00598C 506 212.12299 494.445 169.00998 472.504 131.00598C 450.563 93.00198 419.004 61.43998 381 39.49798C 342.996 17.556978 299.883 6.0059776 256 6.0059776L256 6.0059776L256 6zM196.76599 76C 208.60199 76 219.954 80.6992 228.325 89.062C 236.69609 97.42529 241.399 108.772995 241.399 120.601C 241.399 132.429 236.6959 143.773 228.325 152.136C 219.9539 160.4993 208.60199 165.198 196.76599 165.198C 184.926 165.198 173.575 160.4988 165.20699 152.136C 156.83589 143.7727 152.13298 132.429 152.13298 120.601C 152.13298 108.772995 156.83218 97.429 165.20297 89.062C 173.57407 80.6987 184.92596 76 196.76497 76zM196.76599 169.39801C 209.129 169.39801 219.08199 179.34721 219.08199 191.703L219.08199 191.703L219.08199 236.308L277.977 236.308C 286.21918 236.308 292.852 242.9369 292.852 251.171C 292.852 259.4051 286.21918 266.038 277.977 266.038L277.977 266.038L219.08199 266.0419L219.08199 288.3539L316.176 288.3539C 324.0041 288.24063 331.641 292.23282 335.848 299.51392L335.848 299.51392L395.371 402.5039C 401.5546 413.2069 397.914 426.7969 387.203 432.9729C 376.492 439.1526 362.894 435.5041 356.719 424.8127L356.719 424.8127L303.633 332.92972L196.773 332.92972C 186.73 332.92972 178.277 326.3594 175.461 317.2737C 175.35553 316.93387 175.25787 316.56277 175.16412 316.21902C 175.06647 315.87918 174.98444 315.512 174.91022 315.13312C 174.836 314.79327 174.76959 314.41437 174.7149 314.0393C 174.65631 313.6604 174.60944 313.30103 174.57037 312.926C 174.5235 312.5471 174.51959 312.16818 174.48444 311.79318C 174.44537 311.41037 174.44537 311.03146 174.44537 310.637L174.44537 310.637L174.44537 191.69699C 174.44537 179.342 184.39847 169.396 196.76137 169.396zM165.68799 256.67502L171.13329 266.0891L166.42628 268.80392C 131.16028 289.1559 115.633286 331.77692 129.5633 370.0039C 143.48929 408.2379 182.79329 430.9099 222.8953 423.8439C 262.99728 416.7853 292.1683 382.0389 292.1683 341.3479L292.1683 341.3479L292.1683 335.9143L303.0393 335.9143L303.0393 341.3479C 303.0393 387.2429 270.0043 426.5819 224.77332 434.5509C 185.20331 441.5236 146.17932 422.7309 126.51932 389.0389C 123.70682 384.2264 121.296616 379.10922 119.33182 373.7189C 103.62482 330.5899 121.20682 282.3279 160.97682 259.3789z" stroke="none" fill="#000000" fill-rule="nonzero" />
</g>
</svg>